<?xml version="1.0" standalone="no"?>
<!DOCTYPE svg PUBLIC "-//W3C//DTD SVG 20010904//EN"
 "http://www.w3.org/TR/2001/REC-SVG-20010904/DTD/svg10.dtd">
<svg version="1.0" xmlns="http://www.w3.org/2000/svg"
 width="3240.000000pt" height="1110.000000pt" viewBox="0 0 3240.000000 1110.000000"
 preserveAspectRatio="xMidYMid meet">

<g transform="translate(0.000000,1110.000000) scale(0.100000,-0.100000)"
fill="#000000" stroke="none">
<path d="M3436 9650 c-64 -17 -156 -71 -208 -124 -62 -63 -105 -151 -119 -246
-26 -165 53 -342 192 -430 84 -55 152 -72 264 -68 86 4 109 9 168 36 127 59
220 178 247 320 40 204 -76 417 -269 492 -64 25 -211 36 -275 20z"/>
<path d="M5515 9647 c-164 -55 -268 -164 -310 -324 -52 -201 51 -415 245 -507
55 -26 80 -31 162 -34 79 -4 108 0 162 18 204 68 334 282 296 490 -26 146
-112 260 -245 326 -68 34 -84 37 -173 40 -63 3 -111 -1 -137 -9z"/>
<path d="M1572 9029 c-240 -36 -448 -211 -523 -441 -34 -103 -35 -299 -2 -403
106 -335 471 -527 808 -425 170 52 320 179 394 331 104 218 89 459 -43 657
-135 204 -391 317 -634 281z"/>
<path d="M7226 8604 c-129 -47 -191 -191 -135 -314 27 -60 54 -88 114 -116
199 -94 403 113 309 312 -26 55 -81 102 -137 119 -62 18 -100 18 -151 -1z"/>
<path d="M4305 7984 c-16 -2 -70 -9 -120 -15 -138 -16 -341 -63 -487 -112
-745 -249 -1256 -774 -1399 -1437 -20 -90 -23 -135 -24 -315 0 -181 3 -226 23
-323 60 -299 180 -532 371 -722 110 -110 189 -169 496 -372 282 -187 361 -250
448 -358 156 -194 172 -345 82 -805 -81 -414 -79 -402 -79 -630 0 -184 3 -220
22 -288 73 -265 209 -463 432 -631 289 -218 552 -306 869 -293 212 9 368 51
596 161 531 257 1042 812 1393 1512 218 435 354 901 392 1339 31 369 -18 893
-120 1280 -277 1051 -971 1700 -2082 1949 -210 47 -303 57 -548 61 -129 2
-248 1 -265 -1z m615 -498 c731 -139 1263 -482 1578 -1016 232 -394 354 -912
356 -1515 1 -262 -5 -329 -51 -550 -208 -1011 -965 -2013 -1678 -2221 -121
-35 -291 -44 -398 -20 -152 34 -354 154 -478 283 -188 197 -212 390 -110 908
63 318 81 453 81 594 0 297 -94 524 -314 758 -128 136 -219 205 -606 459 -304
198 -428 335 -499 549 -48 143 -64 266 -58 435 6 152 21 232 72 365 141 375
506 706 965 875 117 43 327 96 435 109 50 6 101 13 115 15 14 3 122 3 240 1
180 -2 237 -7 350 -29z"/>
<path d="M9513 6298 c3 -1145 4 -1175 24 -1263 116 -505 458 -870 925 -986
108 -26 324 -36 439 -19 185 26 391 115 551 235 431 324 611 952 423 1475
-160 444 -525 761 -957 830 -126 20 -353 8 -463 -24 -185 -54 -367 -160 -506
-294 l-79 -75 0 637 0 636 -49 0 c-28 0 -53 5 -56 10 -4 6 -59 10 -131 10
l-125 0 4 -1172z m1431 -182 c152 -42 255 -99 368 -205 120 -112 196 -235 240
-388 20 -66 23 -101 23 -233 -1 -149 -2 -159 -33 -250 -123 -357 -433 -581
-802 -581 -355 0 -669 217 -789 547 -77 211 -65 467 30 657 101 201 282 363
484 432 138 47 349 56 479 21z"/>
<path d="M16253 6298 c3 -1170 3 -1173 25 -1270 112 -493 451 -855 912 -975
118 -31 326 -42 451 -24 97 14 259 66 351 112 347 173 588 497 675 909 25 118
25 382 0 500 -114 536 -501 930 -1001 1019 -77 14 -295 14 -372 0 -211 -37
-448 -162 -611 -322 l-63 -61 0 632 0 632 -54 0 c-30 0 -58 5 -61 10 -4 6 -59
10 -131 10 l-125 0 4 -1172z m1411 -182 c152 -42 255 -99 368 -205 120 -112
196 -235 240 -388 20 -66 23 -101 23 -233 -1 -149 -2 -159 -33 -250 -123 -357
-433 -581 -802 -581 -355 0 -669 217 -789 547 -77 211 -65 467 30 657 101 201
282 363 484 432 138 47 349 56 479 21z"/>
<path d="M30290 6745 c-233 -52 -372 -126 -507 -268 -123 -130 -186 -289 -185
-467 1 -173 66 -322 202 -460 145 -147 385 -278 695 -380 360 -119 481 -176
569 -270 68 -72 91 -128 90 -217 -1 -101 -40 -178 -134 -267 -81 -76 -160
-119 -269 -147 -185 -47 -344 -33 -509 47 -167 81 -277 212 -290 347 l-5 47
-214 0 -215 0 7 -62 c19 -182 49 -283 114 -380 174 -259 489 -409 861 -410 87
0 160 5 206 16 314 69 578 258 702 503 70 137 91 327 52 477 -27 107 -63 169
-145 252 -132 134 -320 235 -637 344 -210 71 -315 116 -419 177 -98 58 -210
147 -228 181 -40 75 -32 191 19 293 79 156 265 249 499 249 198 0 386 -88 471
-220 36 -57 70 -155 70 -206 l0 -34 165 0 165 0 0 28 c0 77 -79 327 -137 430
-92 168 -309 324 -528 383 -105 28 -367 36 -465 14z"/>
<path d="M27305 6634 c-594 -85 -954 -439 -1055 -1039 -29 -171 -29 -419 -1
-586 86 -499 395 -865 863 -1022 159 -54 270 -72 438 -71 161 1 234 12 362 55
335 112 623 375 822 750 l46 86 -82 6 c-46 4 -133 7 -194 7 -111 0 -111 0
-123 -27 -28 -60 -110 -172 -181 -243 -172 -174 -347 -260 -586 -290 -97 -12
-221 -1 -332 30 -279 78 -532 316 -640 603 -37 98 -72 248 -72 310 l0 37 1114
0 1113 0 6 62 c10 114 -21 319 -75 488 -107 336 -306 580 -587 720 -187 94
-316 121 -591 125 -118 2 -228 1 -245 -1z m413 -310 c313 -65 599 -317 722
-636 17 -44 33 -93 37 -109 l6 -29 -941 0 c-518 0 -943 4 -946 8 -8 14 58 194
97 265 144 257 421 463 679 506 89 15 263 12 346 -5z"/>
<path d="M13914 6575 c-324 -50 -630 -249 -817 -530 -76 -116 -123 -213 -165
-346 -44 -138 -57 -227 -57 -394 0 -167 13 -256 57 -394 66 -209 174 -387 323
-536 460 -460 1172 -471 1650 -24 l65 61 0 -171 0 -171 171 0 170 0 -4 708
c-4 781 -1 745 -72 959 -60 181 -148 329 -280 470 -267 288 -662 427 -1041
368z m390 -459 c152 -42 255 -99 368 -205 120 -112 196 -235 240 -388 20 -66
23 -101 23 -233 -1 -149 -2 -159 -33 -250 -123 -357 -433 -581 -802 -581 -355
0 -669 217 -789 547 -77 211 -65 467 30 657 101 201 282 363 484 432 138 47
349 56 479 21z"/>
<path d="M20606 6564 c-237 -47 -478 -181 -645 -360 -268 -287 -395 -702 -335
-1101 27 -186 108 -394 213 -554 175 -265 476 -460 795 -515 135 -24 349 -15
481 20 126 33 316 125 422 205 251 189 433 495 487 820 20 120 20 318 1 441
-86 525 -486 950 -985 1044 -102 20 -337 20 -434 0z m418 -448 c152 -42 255
-99 368 -205 120 -112 196 -235 240 -388 20 -66 23 -101 23 -233 -1 -149 -2
-159 -33 -250 -123 -357 -433 -581 -802 -581 -355 0 -669 217 -789 547 -77
211 -65 467 30 657 101 201 282 363 484 432 138 47 349 56 479 21z"/>
<path d="M23955 6564 c-297 -66 -555 -232 -733 -472 -260 -350 -328 -841 -175
-1252 47 -125 78 -187 154 -301 174 -261 457 -443 784 -505 132 -24 356 -15
483 20 292 81 528 247 691 485 313 459 316 1054 8 1511 -61 90 -198 234 -287
301 -88 68 -284 163 -400 195 -83 23 -119 27 -275 30 -137 3 -197 0 -250 -12z
m429 -448 c152 -42 255 -99 368 -205 120 -112 196 -235 240 -388 20 -66 23
-101 23 -233 -1 -149 -2 -159 -33 -250 -123 -357 -433 -581 -802 -581 -355 0
-669 217 -789 547 -77 211 -65 467 30 657 101 201 282 363 484 432 138 47 349
56 479 21z"/>
</g>
</svg>
